<svg width="16" height="15" viewBox="0 0 16 15" fill="none" xmlns="http://www.w3.org/2000/svg">
<path d="M13.3025 8.23437C13.3348 8 13.351 7.75781 13.351 7.5C13.351 7.25 13.3348 7 13.2945 6.76562L14.9333 5.53125C15.0786 5.42187 15.119 5.21094 15.0302 5.05469L13.4802 2.46094C13.3833 2.28906 13.1815 2.23437 13.0039 2.28906L11.0744 3.03906C10.6708 2.74219 10.2429 2.49219 9.76661 2.30469L9.47599 0.320312C9.4437 0.132812 9.28224 0 9.08849 0H5.98849C5.79474 0 5.64135 0.132812 5.60906 0.320312L5.31844 2.30469C4.84213 2.49219 4.4062 2.75 4.01062 3.03906L2.0812 2.28906C1.90359 2.22656 1.70177 2.28906 1.6049 2.46094L0.062969 5.05469C-0.033906 5.21875 -0.00161439 5.42187 0.159844 5.53125L1.79865 6.76562C1.75828 7 1.72599 7.25781 1.72599 7.5C1.72599 7.74219 1.74214 8 1.7825 8.23437L0.143698 9.46875C-0.00161438 9.57812 -0.0419789 9.78906 0.0468232 9.94531L1.59682 12.5391C1.6937 12.7109 1.89552 12.7656 2.07312 12.7109L4.00255 11.9609C4.4062 12.2578 4.83406 12.5078 5.31036 12.6953L5.60099 14.6797C5.64135 14.8672 5.79474 15 5.98849 15H9.08849C9.28224 15 9.4437 14.8672 9.46791 14.6797L9.75854 12.6953C10.2348 12.5078 10.6708 12.2578 11.0664 11.9609L12.9958 12.7109C13.1734 12.7734 13.3752 12.7109 13.4721 12.5391L15.0221 9.94531C15.119 9.77344 15.0786 9.57812 14.9252 9.46875L13.3025 8.23437ZM7.53849 10.3125C5.94005 10.3125 4.63224 9.04688 4.63224 7.5C4.63224 5.95312 5.94005 4.6875 7.53849 4.6875C9.13692 4.6875 10.4447 5.95312 10.4447 7.5C10.4447 9.04688 9.13692 10.3125 7.53849 10.3125Z" fill="#ADB3BC"/>
</svg>
